<svg xmlns="http://www.w3.org/2000/svg" xml:space="preserve" viewBox="0 0 512 512"><path d="M248.233 282.732c-18.683 2.454-37.27 3.757-55.66 8.347-4.99 1.247-14.778 1.864-18.085 6.252-2.46 3.265-1.33 9.501-1.33 13.329v32.36c0 67.568 50.168 124.909 121.674 116.128 62.349-7.658 94.493-60.33 94.493-118.717 0-9.595 4.594-35.437-1.33-43.067-5.19-6.685-25.654-8.296-33.62-9.68-33.692-5.853-72.053-9.427-106.141-4.952zM276.716 175.488c-5.751 1.643-8.91 6.537-9.935 12.202-2.626 14.54-6.538 62.087 18.99 55.098 5.876-1.607 9.034-6.636 9.961-12.382 2.283-14.15 6.454-62.191-19.016-54.918" style="fill:#fff;stroke:none;stroke-width:1.29442;fill-opacity:.5" transform="matrix(1.34836 0 0 1.34836 -123.722 -138.798)"/><path d="M287.066 125.558c0 10.785-2.69 25.627.412 35.954 2.027 6.75 13.087 9.88 16.519 17.117 3.738 7.885 2.485 17.412 2.485 25.889 0 19.072 3.671 42.33-19.416 49.188v16.827c35.108 0 68.108 7.19 102.259 14.239 0-21.495 2.494-44.735-.554-66.016-5.052-35.263-27.982-67.114-60.284-82.428-13.446-6.374-27.028-8.096-41.421-10.77" style="fill:#fff;stroke:none;stroke-width:1.29442;fill-opacity:.5" transform="matrix(1.34836 0 0 1.34836 -123.722 -138.798)"/><path d="M173.157 284.772c34.54-5.082 66.857-14.239 102.26-14.239v-16.827C252.288 246.9 256 223.732 256 204.518c0-8.477-1.253-18.004 2.485-25.889 3.432-7.238 14.493-10.367 16.52-17.117 3.101-10.327.411-25.169.411-35.954-47.731 6.038-89.114 35.067-100.103 84.137-5.343 23.857-2.156 50.73-2.156 75.077" style="fill:#fff;stroke:none;stroke-width:1.29442" transform="matrix(1.34836 0 0 1.34836 -123.722 -138.798)"/></svg>