<?xml version="1.0" encoding="UTF-8" standalone="no"?>
<!-- Created with Inkscape (http://www.inkscape.org/) -->

<svg
   width="512"
   height="512"
   viewBox="0 0 512 512"
   version="1.1"
   id="svg5"
   xml:space="preserve"
   inkscape:version="1.2.1 (9c6d41e410, 2022-07-14)"
   sodipodi:docname="mb4.svg"
   xmlns:inkscape="http://www.inkscape.org/namespaces/inkscape"
   xmlns:sodipodi="http://sodipodi.sourceforge.net/DTD/sodipodi-0.dtd"
   xmlns="http://www.w3.org/2000/svg"
   xmlns:svg="http://www.w3.org/2000/svg"><sodipodi:namedview
     id="namedview7"
     pagecolor="#000000"
     bordercolor="#111111"
     borderopacity="1"
     inkscape:showpageshadow="0"
     inkscape:pageopacity="0"
     inkscape:pagecheckerboard="1"
     inkscape:deskcolor="#d1d1d1"
     inkscape:document-units="mm"
     showgrid="true"
     showguides="true"
     inkscape:zoom="1.4912879"
     inkscape:cx="301.08204"
     inkscape:cy="193.12167"
     inkscape:window-width="1920"
     inkscape:window-height="1017"
     inkscape:window-x="-8"
     inkscape:window-y="-8"
     inkscape:window-maximized="1"
     inkscape:current-layer="g295"><inkscape:grid
       type="xygrid"
       id="grid179" /></sodipodi:namedview><defs
     id="defs2" /><g
     inkscape:label="Слой 1"
     inkscape:groupmode="layer"
     id="layer1"><g
       id="g295"
       transform="matrix(1.3483579,0,0,1.3483579,-123.72242,-138.79763)"><path
         style="fill:#ffffff;stroke:none;stroke-width:1.29442;fill-opacity:0.5"
         d="m 248.2335,282.73157 c -18.6836,2.45422 -37.27103,3.75769 -55.65989,8.34769 -4.9914,1.24653 -14.77848,1.86396 -18.08585,6.25203 -2.46042,3.26452 -1.3304,9.50102 -1.3304,13.32861 v 32.3604 c 0,67.56724 50.16899,124.90858 121.67513,116.12726 62.34814,-7.65776 94.49238,-60.33015 94.49238,-118.71609 0,-9.59551 4.59388,-35.43723 -1.33066,-43.06782 -5.18932,-6.68436 -25.65274,-8.29591 -33.61858,-9.67964 -33.69236,-5.85335 -72.05368,-9.42723 -106.14213,-4.95244 z"
         id="path287" /><path
         style="fill:#ffffff;stroke:none;stroke-width:1.29442;fill-opacity:1"
         d="m 276.71584,175.48789 c -5.7511,1.64262 -8.91077,6.53681 -9.93465,12.20247 -2.62637,14.53888 -6.53809,62.08667 18.98909,55.09812 5.87665,-1.60767 9.03502,-6.63647 9.96182,-12.38239 2.28335,-14.15056 6.45396,-62.19152 -19.01626,-54.9182"
         id="path285" /><path
         style="fill:#ffffff;stroke:none;stroke-width:1.29442;fill-opacity:0.5"
         d="m 287.06599,125.55838 c 0,10.78507 -2.6898,25.62685 0.41162,35.9537 2.02706,6.75038 13.08784,9.87899 16.51934,17.11736 3.73828,7.88429 2.48528,17.41119 2.48528,25.88833 0,19.07193 3.67097,42.33 -19.41624,49.18781 v 16.82741 c 35.10845,0 68.1083,7.19049 102.25888,14.23858 0,-21.49507 2.49434,-44.73502 -0.55401,-66.01522 -5.05211,-35.26379 -27.9814,-67.11419 -60.28355,-82.42843 -13.4464,-6.37371 -27.02871,-8.09593 -41.42132,-10.76954"
         id="path283" /><path
         style="fill:#ffffff;stroke:none;stroke-width:1.29442;fill-opacity:0.5"
         d="m 173.15736,284.77157 c 34.5393,-5.08187 66.8566,-14.23858 102.25888,-14.23858 V 253.70558 C 252.28891,246.89954 256,223.73208 256,204.51777 c 0,-8.47714 -1.253,-18.00404 2.48528,-25.88833 3.4315,-7.23837 14.49228,-10.36698 16.51934,-17.11736 3.10142,-10.32685 0.41162,-25.16863 0.41162,-35.9537 -47.7316,6.03715 -89.11395,35.06703 -100.10355,84.13705 -5.3427,23.85609 -2.15533,50.72947 -2.15533,75.07614"
         id="path281" /></g></g></svg>
