<svg xmlns="http://www.w3.org/2000/svg" xml:space="preserve" viewBox="0 0 512 512"><path d="M299.393 281.232c-.305.598-.51 1.019-.827 1.64-16.948 33.222-16.947 33.222-33.895 0-.312-.61-.513-1.024-.813-1.612-5.282.328-10.506.8-15.625 1.472-18.684 2.454-37.27 3.757-55.66 8.347-4.99 1.247-14.778 1.864-18.086 6.252-2.46 3.265-1.33 9.502-1.33 13.33v32.36c0 67.567 50.169 124.907 121.675 116.126 62.348-7.658 94.493-60.33 94.493-118.715 0-9.595 4.594-35.438-1.33-43.069-5.19-6.684-25.653-8.295-33.619-9.679-17.486-3.038-36.231-5.448-54.983-6.452z" style="fill:#fff;stroke:none;stroke-width:1.29442;fill-opacity:.5" transform="matrix(1.34836 0 0 1.34836 -123.722 -138.798)"/><path d="M276.716 175.488c-5.751 1.643-8.91 6.537-9.935 12.202-2.626 14.54-6.538 62.087 18.99 55.098 5.876-1.607 9.034-6.636 9.961-12.382 2.283-14.15 6.454-62.191-19.016-54.918" style="fill:#fff;stroke:none;stroke-width:1.29442;fill-opacity:1" transform="matrix(1.34836 0 0 1.34836 -123.722 -138.798)"/><path d="M293.898 126.787a917.13 917.13 0 0 1 4.668 9.041c14.547 28.515 16.536 32.544-4.605 33.116 3.79 2.845 8.107 5.618 10.036 9.685 3.738 7.885 2.485 17.411 2.485 25.888 0 15.947 2.555 34.815-10.1 44.581 15.717.717 16.41 4.275 7.745 21.996 28.864 1.803 56.63 7.781 85.198 13.677 0-21.495 2.495-44.735-.554-66.015-5.052-35.263-27.982-67.114-60.284-82.428-11.29-5.352-22.708-7.432-34.59-9.541zM269.938 126.37c-45.39 7.502-84.059 36.145-94.625 83.326-5.343 23.856-2.155 50.729-2.155 75.075 29.178-4.293 56.778-11.474 85.985-13.606-8.569-17.512-8.095-21.245 6.943-22.04-12.67-9.719-10.086-28.542-10.086-44.608 0-8.477-1.253-18.003 2.486-25.888 1.773-3.742 5.578-6.386 9.128-9-19.346-.755-17.094-5.32-2.943-33.059a822.194 822.194 0 0 1 5.267-10.2z" style="fill:#fff;stroke:none;stroke-width:1.29442;fill-opacity:.5" transform="matrix(1.34836 0 0 1.34836 -123.722 -138.798)"/><path d="M260 290c86.603 0 86.603 0 43.301 75C260 440 260 440 216.7 365c-43.302-75-43.302-75 43.301-75Z" style="fill:#fff;fill-opacity:1;stroke:none;stroke-width:21.9099;stroke-linecap:round;stroke-linejoin:round;stroke-dasharray:none;stroke-opacity:1" transform="matrix(.35714 0 0 -.4042 163.144 198.266)"/><path d="M260 290c86.603 0 86.603 0 43.301 75C260 440 260 440 216.7 365c-43.302-75-43.302-75 43.301-75Z" style="fill:#fff;fill-opacity:1;stroke:none;stroke-width:21.9099;stroke-linecap:round;stroke-linejoin:round;stroke-dasharray:none;stroke-opacity:1" transform="matrix(.35714 0 0 .4042 163.144 88.68)"/></svg>