<?xml version="1.0" encoding="UTF-8" standalone="no"?>
<!-- Created with Inkscape (http://www.inkscape.org/) -->

<svg
   width="512"
   height="512"
   viewBox="0 0 512 512"
   version="1.1"
   id="svg5"
   xml:space="preserve"
   inkscape:version="1.2.1 (9c6d41e410, 2022-07-14)"
   sodipodi:docname="mwheel.svg"
   xmlns:inkscape="http://www.inkscape.org/namespaces/inkscape"
   xmlns:sodipodi="http://sodipodi.sourceforge.net/DTD/sodipodi-0.dtd"
   xmlns="http://www.w3.org/2000/svg"
   xmlns:svg="http://www.w3.org/2000/svg"><sodipodi:namedview
     id="namedview7"
     pagecolor="#000000"
     bordercolor="#111111"
     borderopacity="1"
     inkscape:showpageshadow="0"
     inkscape:pageopacity="0"
     inkscape:pagecheckerboard="1"
     inkscape:deskcolor="#d1d1d1"
     inkscape:document-units="mm"
     showgrid="true"
     showguides="true"
     inkscape:zoom="2.1089996"
     inkscape:cx="164.77007"
     inkscape:cy="168.32626"
     inkscape:window-width="1920"
     inkscape:window-height="1017"
     inkscape:window-x="-8"
     inkscape:window-y="-8"
     inkscape:window-maximized="1"
     inkscape:current-layer="g295"><inkscape:grid
       type="xygrid"
       id="grid179" /></sodipodi:namedview><defs
     id="defs2" /><g
     inkscape:label="Слой 1"
     inkscape:groupmode="layer"
     id="layer1"><g
       id="g295"
       transform="matrix(1.3483579,0,0,1.3483579,-123.72242,-138.79763)"><path
         id="path287"
         style="fill:#ffffff;stroke:none;stroke-width:1.29442;fill-opacity:0.5"
         d="M 299.39322 281.2324 C 299.08835 281.83047 298.88295 282.25105 298.56612 282.87212 C 281.61826 316.0943 281.61857 316.0943 264.67072 282.87212 C 264.35925 282.26157 264.15802 281.84825 263.8581 281.25992 C 258.57649 281.58843 253.35207 282.05963 248.2329 282.73162 C 229.54932 285.18584 210.96232 286.48945 192.57348 291.07945 C 187.58208 292.32597 177.79461 292.9432 174.48724 297.33126 C 172.02682 300.59578 173.1575 306.83297 173.1575 310.66056 L 173.1575 343.02052 C 173.1575 410.58769 223.32576 467.92833 294.83183 459.14702 C 357.17991 451.48926 389.32466 398.81789 389.32466 340.43201 C 389.32466 330.83651 393.91945 304.99371 387.99492 297.36313 C 382.8056 290.67878 362.34202 289.06784 354.37619 287.68411 C 336.88965 284.64619 318.14499 282.23574 299.39322 281.2324 z " /><path
         style="fill:#ffffff;stroke:none;stroke-width:1.29442;fill-opacity:1"
         d="m 276.71584,175.48789 c -5.7511,1.64262 -8.91077,6.53681 -9.93465,12.20247 -2.62637,14.53888 -6.53809,62.08667 18.98909,55.09812 5.87665,-1.60767 9.03502,-6.63647 9.96182,-12.38239 2.28335,-14.15056 6.45396,-62.19152 -19.01626,-54.9182"
         id="path285" /><path
         id="path283"
         style="fill:#ffffff;stroke:none;stroke-width:1.29442;fill-opacity:0.5"
         d="M 293.89753 126.78672 C 295.32821 129.51715 296.80879 132.38358 298.56612 135.82839 C 313.11263 164.34333 315.10203 168.37203 293.96127 168.94448 C 297.75117 171.78856 302.06824 174.56158 303.99662 178.6293 C 307.7349 186.51357 306.48229 196.04015 306.48229 204.51727 C 306.48229 220.4643 309.0374 239.3324 296.38175 249.0984 C 312.09936 249.81455 312.79158 253.37276 304.12699 271.0942 C 332.99144 272.89677 360.7575 278.87536 389.32466 284.77114 C 389.32466 263.27611 391.81966 240.03639 388.77133 218.75623 C 383.71922 183.49252 360.78886 151.64235 328.48677 136.32813 C 317.19615 130.97629 305.77906 128.89647 293.89753 126.78672 z " /><path
         id="path281"
         style="fill:#ffffff;stroke:none;stroke-width:1.29442;fill-opacity:0.5"
         d="M 269.93754 126.36955 C 224.5475 133.872 185.87947 162.51457 175.3129 209.69573 C 169.9702 233.55178 173.1575 260.42451 173.1575 284.77114 C 202.33641 280.47795 229.93625 273.29677 259.14316 271.16518 C 250.57407 253.65274 251.04781 249.92009 266.08593 249.12448 C 253.41681 239.40614 255.99987 220.58306 255.99987 204.51727 C 255.99987 196.04015 254.74726 186.51357 258.48554 178.6293 C 260.25946 174.88737 264.06447 172.24308 267.61412 169.62963 C 248.2683 168.87415 250.51982 164.30946 264.67072 136.57004 C 266.65327 132.68373 268.36458 129.34662 269.93754 126.36955 z " /><path
         sodipodi:type="star"
         style="fill:#ffffff;fill-opacity:1;stroke:none;stroke-width:21.9099;stroke-linecap:round;stroke-linejoin:round;stroke-dasharray:none;stroke-opacity:1"
         id="path407"
         inkscape:flatsided="true"
         sodipodi:sides="3"
         sodipodi:cx="260"
         sodipodi:cy="340"
         sodipodi:r1="50"
         sodipodi:r2="25"
         sodipodi:arg1="-1.5707963"
         sodipodi:arg2="-0.52359878"
         inkscape:rounded="1"
         inkscape:randomized="0"
         d="m 260,290 c 86.60254,0 86.60254,0 43.30127,75 C 260,440 260,440 216.69873,365 173.39746,290 173.39746,290 260,290 Z"
         transform="matrix(0.26486856,0,0,-0.29976648,212.75259,249.9809)"
         inkscape:transform-center-y="5.0524127"
         inkscape:transform-center-x="6.8520782e-06" /><path
         sodipodi:type="star"
         style="fill:#ffffff;fill-opacity:1;stroke:none;stroke-width:21.9099;stroke-linecap:round;stroke-linejoin:round;stroke-dasharray:none;stroke-opacity:1"
         id="path407-2"
         inkscape:flatsided="true"
         sodipodi:sides="3"
         sodipodi:cx="260"
         sodipodi:cy="340"
         sodipodi:r1="50"
         sodipodi:r2="25"
         sodipodi:arg1="-1.5707963"
         sodipodi:arg2="-0.52359878"
         inkscape:rounded="1"
         inkscape:randomized="0"
         d="m 260,290 c 86.60254,0 86.60254,0 43.30127,75 C 260,440 260,440 216.69873,365 173.39746,290 173.39746,290 260,290 Z"
         transform="matrix(0.26486856,0,0,0.29976648,212.75259,168.7068)"
         inkscape:transform-center-y="-5.0524121"
         inkscape:transform-center-x="6.8520782e-06" /></g></g></svg>
